<svg width="26" height="27" viewBox="0 0 26 27" fill="none" xmlns="http://www.w3.org/2000/svg">
<g clip-path="url(#clip0_11369_788)">
<path d="M0.40625 13.9463C0.40625 6.98926 6.04297 1.35254 13 1.35254C19.957 1.35254 25.5938 6.98926 25.5938 13.9463C25.5938 20.9033 19.957 26.54 13 26.54C6.04297 26.54 0.40625 20.9033 0.40625 13.9463ZM13 24.915C19.0277 24.915 23.9688 20.035 23.9688 13.9463C23.9688 7.91855 19.0887 2.97754 13 2.97754C6.97227 2.97754 2.03125 7.85762 2.03125 13.9463C2.03125 19.974 6.91133 24.915 13 24.915ZM13.6348 20.2178L19.4797 14.3779C19.7184 14.1393 19.7184 13.7533 19.4797 13.5146L13.6348 7.6748C13.3961 7.43613 13.0102 7.43613 12.7715 7.6748L12.4211 8.0252C12.1824 8.26387 12.1824 8.65996 12.4312 8.89355L16.773 13.083H7.10938C6.77422 13.083 6.5 13.3572 6.5 13.6924V14.2002C6.5 14.5354 6.77422 14.8096 7.10938 14.8096H16.773L12.4262 18.999C12.1824 19.2377 12.1773 19.6287 12.416 19.8674L12.7664 20.2178C13.0102 20.4564 13.3961 20.4564 13.6348 20.2178Z" fill="#C39683"/>
</g>
<defs>
<clipPath id="clip0_11369_788">
<rect width="26" height="26" fill="white" transform="matrix(-1 0 0 1 26 0.946289)"/>
</clipPath>
</defs>
</svg>
