<svg width="341" height="301" viewBox="0 0 341 301" fill="none" xmlns="http://www.w3.org/2000/svg">
<path fill-rule="evenodd" clip-rule="evenodd" d="M-1.9375 0.683594C-5.25 0.683594 -7.9375 3.36987 -7.9375 6.68359C-7.9375 9.99731 -5.25 12.6836 -1.9375 12.6836C1.375 12.6836 4.0625 9.99731 4.0625 6.68359C4.0625 3.36987 1.375 0.683594 -1.9375 0.683594ZM-7.9375 54.6836C-7.9375 51.3699 -5.25 48.6836 -1.9375 48.6836C1.375 48.6836 4.0625 51.3699 4.0625 54.6836C4.0625 57.9973 1.375 60.6836 -1.9375 60.6836C-5.25 60.6836 -7.9375 57.9973 -7.9375 54.6836ZM-1.9375 96.6836C-5.25 96.6836 -7.9375 99.3699 -7.9375 102.684C-7.9375 105.997 -5.25 108.684 -1.9375 108.684C1.375 108.684 4.0625 105.997 4.0625 102.684C4.0625 99.3699 1.375 96.6836 -1.9375 96.6836ZM-7.9375 150.684C-7.9375 147.37 -5.25 144.684 -1.9375 144.684C1.375 144.684 4.0625 147.37 4.0625 150.684C4.0625 153.997 1.375 156.684 -1.9375 156.684C-5.25 156.684 -7.9375 153.997 -7.9375 150.684ZM-1.9375 192.684C-5.25 192.684 -7.9375 195.37 -7.9375 198.684C-7.9375 201.997 -5.25 204.684 -1.9375 204.684C1.375 204.684 4.0625 201.997 4.0625 198.684C4.0625 195.37 1.375 192.684 -1.9375 192.684ZM-7.9375 246.684C-7.9375 243.37 -5.25 240.684 -1.9375 240.684C1.375 240.684 4.0625 243.37 4.0625 246.684C4.0625 249.997 1.375 252.684 -1.9375 252.684C-5.25 252.684 -7.9375 249.997 -7.9375 246.684ZM-1.9375 288.684C-5.25 288.684 -7.9375 291.37 -7.9375 294.684C-7.9375 297.997 -5.25 300.684 -1.9375 300.684C1.375 300.684 4.0625 297.997 4.0625 294.684C4.0625 291.37 1.375 288.684 -1.9375 288.684ZM46.0625 0.683594C42.75 0.683594 40.0625 3.36987 40.0625 6.68359C40.0625 9.99731 42.75 12.6836 46.0625 12.6836C49.375 12.6836 52.0625 9.99731 52.0625 6.68359C52.0625 3.36987 49.375 0.683594 46.0625 0.683594ZM40.0625 54.6836C40.0625 51.3699 42.75 48.6836 46.0625 48.6836C49.375 48.6836 52.0625 51.3699 52.0625 54.6836C52.0625 57.9973 49.375 60.6836 46.0625 60.6836C42.75 60.6836 40.0625 57.9973 40.0625 54.6836ZM46.0625 96.6836C42.75 96.6836 40.0625 99.3699 40.0625 102.684C40.0625 105.997 42.75 108.684 46.0625 108.684C49.375 108.684 52.0625 105.997 52.0625 102.684C52.0625 99.3699 49.375 96.6836 46.0625 96.6836ZM40.0625 150.684C40.0625 147.37 42.75 144.684 46.0625 144.684C49.375 144.684 52.0625 147.37 52.0625 150.684C52.0625 153.997 49.375 156.684 46.0625 156.684C42.75 156.684 40.0625 153.997 40.0625 150.684ZM46.0625 192.684C42.75 192.684 40.0625 195.37 40.0625 198.684C40.0625 201.997 42.75 204.684 46.0625 204.684C49.375 204.684 52.0625 201.997 52.0625 198.684C52.0625 195.37 49.375 192.684 46.0625 192.684ZM40.0625 246.684C40.0625 243.37 42.75 240.684 46.0625 240.684C49.375 240.684 52.0625 243.37 52.0625 246.684C52.0625 249.997 49.375 252.684 46.0625 252.684C42.75 252.684 40.0625 249.997 40.0625 246.684ZM46.0625 288.684C42.75 288.684 40.0625 291.37 40.0625 294.684C40.0625 297.997 42.75 300.684 46.0625 300.684C49.375 300.684 52.0625 297.997 52.0625 294.684C52.0625 291.37 49.375 288.684 46.0625 288.684ZM94.0625 0.683594C90.75 0.683594 88.0625 3.36987 88.0625 6.68359C88.0625 9.99731 90.75 12.6836 94.0625 12.6836C97.375 12.6836 100.062 9.99731 100.062 6.68359C100.062 3.36987 97.375 0.683594 94.0625 0.683594ZM88.0625 54.6836C88.0625 51.3699 90.75 48.6836 94.0625 48.6836C97.375 48.6836 100.062 51.3699 100.062 54.6836C100.062 57.9973 97.375 60.6836 94.0625 60.6836C90.75 60.6836 88.0625 57.9973 88.0625 54.6836ZM94.0625 96.6836C90.75 96.6836 88.0625 99.3699 88.0625 102.684C88.0625 105.997 90.75 108.684 94.0625 108.684C97.375 108.684 100.062 105.997 100.062 102.684C100.062 99.3699 97.375 96.6836 94.0625 96.6836ZM88.0625 150.684C88.0625 147.37 90.75 144.684 94.0625 144.684C97.375 144.684 100.062 147.37 100.062 150.684C100.062 153.997 97.375 156.684 94.0625 156.684C90.75 156.684 88.0625 153.997 88.0625 150.684ZM94.0625 192.684C90.75 192.684 88.0625 195.37 88.0625 198.684C88.0625 201.997 90.75 204.684 94.0625 204.684C97.375 204.684 100.062 201.997 100.062 198.684C100.062 195.37 97.375 192.684 94.0625 192.684ZM88.0625 246.684C88.0625 243.37 90.75 240.684 94.0625 240.684C97.375 240.684 100.062 243.37 100.062 246.684C100.062 249.997 97.375 252.684 94.0625 252.684C90.75 252.684 88.0625 249.997 88.0625 246.684ZM94.0625 288.684C90.75 288.684 88.0625 291.37 88.0625 294.684C88.0625 297.997 90.75 300.684 94.0625 300.684C97.375 300.684 100.062 297.997 100.062 294.684C100.062 291.37 97.375 288.684 94.0625 288.684ZM142.062 0.683594C138.75 0.683594 136.062 3.36987 136.062 6.68359C136.062 9.99731 138.75 12.6836 142.062 12.6836C145.375 12.6836 148.062 9.99731 148.062 6.68359C148.062 3.36987 145.375 0.683594 142.062 0.683594ZM136.062 54.6836C136.062 51.3699 138.75 48.6836 142.062 48.6836C145.375 48.6836 148.062 51.3699 148.062 54.6836C148.062 57.9973 145.375 60.6836 142.062 60.6836C138.75 60.6836 136.062 57.9973 136.062 54.6836ZM142.062 96.6836C138.75 96.6836 136.062 99.3699 136.062 102.684C136.062 105.997 138.75 108.684 142.062 108.684C145.375 108.684 148.062 105.997 148.062 102.684C148.062 99.3699 145.375 96.6836 142.062 96.6836ZM136.062 150.684C136.062 147.37 138.75 144.684 142.062 144.684C145.375 144.684 148.062 147.37 148.062 150.684C148.062 153.997 145.375 156.684 142.062 156.684C138.75 156.684 136.062 153.997 136.062 150.684ZM142.062 192.684C138.75 192.684 136.062 195.37 136.062 198.684C136.062 201.997 138.75 204.684 142.062 204.684C145.375 204.684 148.062 201.997 148.062 198.684C148.062 195.37 145.375 192.684 142.062 192.684ZM136.062 246.684C136.062 243.37 138.75 240.684 142.062 240.684C145.375 240.684 148.062 243.37 148.062 246.684C148.062 249.997 145.375 252.684 142.062 252.684C138.75 252.684 136.062 249.997 136.062 246.684ZM142.062 288.684C138.75 288.684 136.062 291.37 136.062 294.684C136.062 297.997 138.75 300.684 142.062 300.684C145.375 300.684 148.062 297.997 148.062 294.684C148.062 291.37 145.375 288.684 142.062 288.684ZM190.062 0.683594C186.75 0.683594 184.062 3.36987 184.062 6.68359C184.062 9.99731 186.75 12.6836 190.062 12.6836C193.375 12.6836 196.062 9.99731 196.062 6.68359C196.062 3.36987 193.375 0.683594 190.062 0.683594ZM184.062 54.6836C184.062 51.3699 186.75 48.6836 190.062 48.6836C193.375 48.6836 196.062 51.3699 196.062 54.6836C196.062 57.9973 193.375 60.6836 190.062 60.6836C186.75 60.6836 184.062 57.9973 184.062 54.6836ZM190.062 96.6836C186.75 96.6836 184.062 99.3699 184.062 102.684C184.062 105.997 186.75 108.684 190.062 108.684C193.375 108.684 196.062 105.997 196.062 102.684C196.062 99.3699 193.375 96.6836 190.062 96.6836ZM184.062 150.684C184.062 147.37 186.75 144.684 190.062 144.684C193.375 144.684 196.062 147.37 196.062 150.684C196.062 153.997 193.375 156.684 190.062 156.684C186.75 156.684 184.062 153.997 184.062 150.684ZM190.062 192.684C186.75 192.684 184.062 195.37 184.062 198.684C184.062 201.997 186.75 204.684 190.062 204.684C193.375 204.684 196.062 201.997 196.062 198.684C196.062 195.37 193.375 192.684 190.062 192.684ZM184.062 246.684C184.062 243.37 186.75 240.684 190.062 240.684C193.375 240.684 196.062 243.37 196.062 246.684C196.062 249.997 193.375 252.684 190.062 252.684C186.75 252.684 184.062 249.997 184.062 246.684ZM190.062 288.684C186.75 288.684 184.062 291.37 184.062 294.684C184.062 297.997 186.75 300.684 190.062 300.684C193.375 300.684 196.062 297.997 196.062 294.684C196.062 291.37 193.375 288.684 190.062 288.684ZM238.062 0.683594C234.75 0.683594 232.062 3.36987 232.062 6.68359C232.062 9.99731 234.75 12.6836 238.062 12.6836C241.375 12.6836 244.062 9.99731 244.062 6.68359C244.062 3.36987 241.375 0.683594 238.062 0.683594ZM232.062 54.6836C232.062 51.3699 234.75 48.6836 238.062 48.6836C241.375 48.6836 244.062 51.3699 244.062 54.6836C244.062 57.9973 241.375 60.6836 238.062 60.6836C234.75 60.6836 232.062 57.9973 232.062 54.6836ZM238.062 96.6836C234.75 96.6836 232.062 99.3699 232.062 102.684C232.062 105.997 234.75 108.684 238.062 108.684C241.375 108.684 244.062 105.997 244.062 102.684C244.062 99.3699 241.375 96.6836 238.062 96.6836ZM232.062 150.684C232.062 147.37 234.75 144.684 238.062 144.684C241.375 144.684 244.062 147.37 244.062 150.684C244.062 153.997 241.375 156.684 238.062 156.684C234.75 156.684 232.062 153.997 232.062 150.684ZM238.062 192.684C234.75 192.684 232.062 195.37 232.062 198.684C232.062 201.997 234.75 204.684 238.062 204.684C241.375 204.684 244.062 201.997 244.062 198.684C244.062 195.37 241.375 192.684 238.062 192.684ZM232.062 246.684C232.062 243.37 234.75 240.684 238.062 240.684C241.375 240.684 244.062 243.37 244.062 246.684C244.062 249.997 241.375 252.684 238.062 252.684C234.75 252.684 232.062 249.997 232.062 246.684ZM238.062 288.684C234.75 288.684 232.062 291.37 232.062 294.684C232.062 297.997 234.75 300.684 238.062 300.684C241.375 300.684 244.062 297.997 244.062 294.684C244.062 291.37 241.375 288.684 238.062 288.684ZM286.062 0.683594C282.75 0.683594 280.062 3.36987 280.062 6.68359C280.062 9.99731 282.75 12.6836 286.062 12.6836C289.375 12.6836 292.062 9.99731 292.062 6.68359C292.062 3.36987 289.375 0.683594 286.062 0.683594ZM280.062 54.6836C280.062 51.3699 282.75 48.6836 286.062 48.6836C289.375 48.6836 292.062 51.3699 292.062 54.6836C292.062 57.9973 289.375 60.6836 286.062 60.6836C282.75 60.6836 280.062 57.9973 280.062 54.6836ZM286.062 96.6836C282.75 96.6836 280.062 99.3699 280.062 102.684C280.062 105.997 282.75 108.684 286.062 108.684C289.375 108.684 292.062 105.997 292.062 102.684C292.062 99.3699 289.375 96.6836 286.062 96.6836ZM280.062 150.684C280.062 147.37 282.75 144.684 286.062 144.684C289.375 144.684 292.062 147.37 292.062 150.684C292.062 153.997 289.375 156.684 286.062 156.684C282.75 156.684 280.062 153.997 280.062 150.684ZM286.062 192.684C282.75 192.684 280.062 195.37 280.062 198.684C280.062 201.997 282.75 204.684 286.062 204.684C289.375 204.684 292.062 201.997 292.062 198.684C292.062 195.37 289.375 192.684 286.062 192.684ZM280.062 246.684C280.062 243.37 282.75 240.684 286.062 240.684C289.375 240.684 292.062 243.37 292.062 246.684C292.062 249.997 289.375 252.684 286.062 252.684C282.75 252.684 280.062 249.997 280.062 246.684ZM286.062 288.684C282.75 288.684 280.062 291.37 280.062 294.684C280.062 297.997 282.75 300.684 286.062 300.684C289.375 300.684 292.062 297.997 292.062 294.684C292.062 291.37 289.375 288.684 286.062 288.684ZM334.062 0.683594C330.75 0.683594 328.062 3.36987 328.062 6.68359C328.062 9.99731 330.75 12.6836 334.062 12.6836C337.375 12.6836 340.062 9.99731 340.062 6.68359C340.062 3.36987 337.375 0.683594 334.062 0.683594ZM328.062 54.6836C328.062 51.3699 330.75 48.6836 334.062 48.6836C337.375 48.6836 340.062 51.3699 340.062 54.6836C340.062 57.9973 337.375 60.6836 334.062 60.6836C330.75 60.6836 328.062 57.9973 328.062 54.6836ZM334.062 96.6836C330.75 96.6836 328.062 99.3699 328.062 102.684C328.062 105.997 330.75 108.684 334.062 108.684C337.375 108.684 340.062 105.997 340.062 102.684C340.062 99.3699 337.375 96.6836 334.062 96.6836ZM328.062 150.684C328.062 147.37 330.75 144.684 334.062 144.684C337.375 144.684 340.062 147.37 340.062 150.684C340.062 153.997 337.375 156.684 334.062 156.684C330.75 156.684 328.062 153.997 328.062 150.684ZM334.062 192.684C330.75 192.684 328.062 195.37 328.062 198.684C328.062 201.997 330.75 204.684 334.062 204.684C337.375 204.684 340.062 201.997 340.062 198.684C340.062 195.37 337.375 192.684 334.062 192.684ZM328.062 246.684C328.062 243.37 330.75 240.684 334.062 240.684C337.375 240.684 340.062 243.37 340.062 246.684C340.062 249.997 337.375 252.684 334.062 252.684C330.75 252.684 328.062 249.997 328.062 246.684ZM334.062 288.684C330.75 288.684 328.062 291.37 328.062 294.684C328.062 297.997 330.75 300.684 334.062 300.684C337.375 300.684 340.062 297.997 340.062 294.684C340.062 291.37 337.375 288.684 334.062 288.684Z" fill="white"/>
</svg>
