<svg width="348" height="301" viewBox="0 0 348 301" fill="none" xmlns="http://www.w3.org/2000/svg">
<path fill-rule="evenodd" clip-rule="evenodd" d="M6 0.222656C2.6875 0.222656 0 2.90894 0 6.22266C0 9.53638 2.6875 12.2227 6 12.2227C9.3125 12.2227 12 9.53638 12 6.22266C12 2.90894 9.3125 0.222656 6 0.222656ZM0 54.2227C0 50.9089 2.6875 48.2227 6 48.2227C9.3125 48.2227 12 50.9089 12 54.2227C12 57.5364 9.3125 60.2227 6 60.2227C2.6875 60.2227 0 57.5364 0 54.2227ZM6 96.2227C2.6875 96.2227 0 98.9089 0 102.223C0 105.536 2.6875 108.223 6 108.223C9.3125 108.223 12 105.536 12 102.223C12 98.9089 9.3125 96.2227 6 96.2227ZM0 150.223C0 146.909 2.6875 144.223 6 144.223C9.3125 144.223 12 146.909 12 150.223C12 153.536 9.3125 156.223 6 156.223C2.6875 156.223 0 153.536 0 150.223ZM6 192.223C2.6875 192.223 0 194.909 0 198.223C0 201.536 2.6875 204.223 6 204.223C9.3125 204.223 12 201.536 12 198.223C12 194.909 9.3125 192.223 6 192.223ZM0 246.223C0 242.909 2.6875 240.223 6 240.223C9.3125 240.223 12 242.909 12 246.223C12 249.536 9.3125 252.223 6 252.223C2.6875 252.223 0 249.536 0 246.223ZM6 288.223C2.6875 288.223 0 290.909 0 294.223C0 297.536 2.6875 300.223 6 300.223C9.3125 300.223 12 297.536 12 294.223C12 290.909 9.3125 288.223 6 288.223ZM54 0.222656C50.6875 0.222656 48 2.90894 48 6.22266C48 9.53638 50.6875 12.2227 54 12.2227C57.3125 12.2227 60 9.53638 60 6.22266C60 2.90894 57.3125 0.222656 54 0.222656ZM48 54.2227C48 50.9089 50.6875 48.2227 54 48.2227C57.3125 48.2227 60 50.9089 60 54.2227C60 57.5364 57.3125 60.2227 54 60.2227C50.6875 60.2227 48 57.5364 48 54.2227ZM54 96.2227C50.6875 96.2227 48 98.9089 48 102.223C48 105.536 50.6875 108.223 54 108.223C57.3125 108.223 60 105.536 60 102.223C60 98.9089 57.3125 96.2227 54 96.2227ZM48 150.223C48 146.909 50.6875 144.223 54 144.223C57.3125 144.223 60 146.909 60 150.223C60 153.536 57.3125 156.223 54 156.223C50.6875 156.223 48 153.536 48 150.223ZM54 192.223C50.6875 192.223 48 194.909 48 198.223C48 201.536 50.6875 204.223 54 204.223C57.3125 204.223 60 201.536 60 198.223C60 194.909 57.3125 192.223 54 192.223ZM48 246.223C48 242.909 50.6875 240.223 54 240.223C57.3125 240.223 60 242.909 60 246.223C60 249.536 57.3125 252.223 54 252.223C50.6875 252.223 48 249.536 48 246.223ZM54 288.223C50.6875 288.223 48 290.909 48 294.223C48 297.536 50.6875 300.223 54 300.223C57.3125 300.223 60 297.536 60 294.223C60 290.909 57.3125 288.223 54 288.223ZM102 0.222656C98.6875 0.222656 96 2.90894 96 6.22266C96 9.53638 98.6875 12.2227 102 12.2227C105.312 12.2227 108 9.53638 108 6.22266C108 2.90894 105.312 0.222656 102 0.222656ZM96 54.2227C96 50.9089 98.6875 48.2227 102 48.2227C105.312 48.2227 108 50.9089 108 54.2227C108 57.5364 105.312 60.2227 102 60.2227C98.6875 60.2227 96 57.5364 96 54.2227ZM102 96.2227C98.6875 96.2227 96 98.9089 96 102.223C96 105.536 98.6875 108.223 102 108.223C105.312 108.223 108 105.536 108 102.223C108 98.9089 105.312 96.2227 102 96.2227ZM96 150.223C96 146.909 98.6875 144.223 102 144.223C105.312 144.223 108 146.909 108 150.223C108 153.536 105.312 156.223 102 156.223C98.6875 156.223 96 153.536 96 150.223ZM102 192.223C98.6875 192.223 96 194.909 96 198.223C96 201.536 98.6875 204.223 102 204.223C105.312 204.223 108 201.536 108 198.223C108 194.909 105.312 192.223 102 192.223ZM96 246.223C96 242.909 98.6875 240.223 102 240.223C105.312 240.223 108 242.909 108 246.223C108 249.536 105.312 252.223 102 252.223C98.6875 252.223 96 249.536 96 246.223ZM102 288.223C98.6875 288.223 96 290.909 96 294.223C96 297.536 98.6875 300.223 102 300.223C105.312 300.223 108 297.536 108 294.223C108 290.909 105.312 288.223 102 288.223ZM150 0.222656C146.688 0.222656 144 2.90894 144 6.22266C144 9.53638 146.688 12.2227 150 12.2227C153.312 12.2227 156 9.53638 156 6.22266C156 2.90894 153.312 0.222656 150 0.222656ZM144 54.2227C144 50.9089 146.688 48.2227 150 48.2227C153.312 48.2227 156 50.9089 156 54.2227C156 57.5364 153.312 60.2227 150 60.2227C146.688 60.2227 144 57.5364 144 54.2227ZM150 96.2227C146.688 96.2227 144 98.9089 144 102.223C144 105.536 146.688 108.223 150 108.223C153.312 108.223 156 105.536 156 102.223C156 98.9089 153.312 96.2227 150 96.2227ZM144 150.223C144 146.909 146.688 144.223 150 144.223C153.312 144.223 156 146.909 156 150.223C156 153.536 153.312 156.223 150 156.223C146.688 156.223 144 153.536 144 150.223ZM150 192.223C146.688 192.223 144 194.909 144 198.223C144 201.536 146.688 204.223 150 204.223C153.312 204.223 156 201.536 156 198.223C156 194.909 153.312 192.223 150 192.223ZM144 246.223C144 242.909 146.688 240.223 150 240.223C153.312 240.223 156 242.909 156 246.223C156 249.536 153.312 252.223 150 252.223C146.688 252.223 144 249.536 144 246.223ZM150 288.223C146.688 288.223 144 290.909 144 294.223C144 297.536 146.688 300.223 150 300.223C153.312 300.223 156 297.536 156 294.223C156 290.909 153.312 288.223 150 288.223ZM198 0.222656C194.688 0.222656 192 2.90894 192 6.22266C192 9.53638 194.688 12.2227 198 12.2227C201.312 12.2227 204 9.53638 204 6.22266C204 2.90894 201.312 0.222656 198 0.222656ZM192 54.2227C192 50.9089 194.688 48.2227 198 48.2227C201.312 48.2227 204 50.9089 204 54.2227C204 57.5364 201.312 60.2227 198 60.2227C194.688 60.2227 192 57.5364 192 54.2227ZM198 96.2227C194.688 96.2227 192 98.9089 192 102.223C192 105.536 194.688 108.223 198 108.223C201.312 108.223 204 105.536 204 102.223C204 98.9089 201.312 96.2227 198 96.2227ZM192 150.223C192 146.909 194.688 144.223 198 144.223C201.312 144.223 204 146.909 204 150.223C204 153.536 201.312 156.223 198 156.223C194.688 156.223 192 153.536 192 150.223ZM198 192.223C194.688 192.223 192 194.909 192 198.223C192 201.536 194.688 204.223 198 204.223C201.312 204.223 204 201.536 204 198.223C204 194.909 201.312 192.223 198 192.223ZM192 246.223C192 242.909 194.688 240.223 198 240.223C201.312 240.223 204 242.909 204 246.223C204 249.536 201.312 252.223 198 252.223C194.688 252.223 192 249.536 192 246.223ZM198 288.223C194.688 288.223 192 290.909 192 294.223C192 297.536 194.688 300.223 198 300.223C201.312 300.223 204 297.536 204 294.223C204 290.909 201.312 288.223 198 288.223ZM246 0.222656C242.688 0.222656 240 2.90894 240 6.22266C240 9.53638 242.688 12.2227 246 12.2227C249.312 12.2227 252 9.53638 252 6.22266C252 2.90894 249.312 0.222656 246 0.222656ZM240 54.2227C240 50.9089 242.688 48.2227 246 48.2227C249.312 48.2227 252 50.9089 252 54.2227C252 57.5364 249.312 60.2227 246 60.2227C242.688 60.2227 240 57.5364 240 54.2227ZM246 96.2227C242.688 96.2227 240 98.9089 240 102.223C240 105.536 242.688 108.223 246 108.223C249.312 108.223 252 105.536 252 102.223C252 98.9089 249.312 96.2227 246 96.2227ZM240 150.223C240 146.909 242.688 144.223 246 144.223C249.312 144.223 252 146.909 252 150.223C252 153.536 249.312 156.223 246 156.223C242.688 156.223 240 153.536 240 150.223ZM246 192.223C242.688 192.223 240 194.909 240 198.223C240 201.536 242.688 204.223 246 204.223C249.312 204.223 252 201.536 252 198.223C252 194.909 249.312 192.223 246 192.223ZM240 246.223C240 242.909 242.688 240.223 246 240.223C249.312 240.223 252 242.909 252 246.223C252 249.536 249.312 252.223 246 252.223C242.688 252.223 240 249.536 240 246.223ZM246 288.223C242.688 288.223 240 290.909 240 294.223C240 297.536 242.688 300.223 246 300.223C249.312 300.223 252 297.536 252 294.223C252 290.909 249.312 288.223 246 288.223ZM294 0.222656C290.688 0.222656 288 2.90894 288 6.22266C288 9.53638 290.688 12.2227 294 12.2227C297.312 12.2227 300 9.53638 300 6.22266C300 2.90894 297.312 0.222656 294 0.222656ZM288 54.2227C288 50.9089 290.688 48.2227 294 48.2227C297.312 48.2227 300 50.9089 300 54.2227C300 57.5364 297.312 60.2227 294 60.2227C290.688 60.2227 288 57.5364 288 54.2227ZM294 96.2227C290.688 96.2227 288 98.9089 288 102.223C288 105.536 290.688 108.223 294 108.223C297.312 108.223 300 105.536 300 102.223C300 98.9089 297.312 96.2227 294 96.2227ZM288 150.223C288 146.909 290.688 144.223 294 144.223C297.312 144.223 300 146.909 300 150.223C300 153.536 297.312 156.223 294 156.223C290.688 156.223 288 153.536 288 150.223ZM294 192.223C290.688 192.223 288 194.909 288 198.223C288 201.536 290.688 204.223 294 204.223C297.312 204.223 300 201.536 300 198.223C300 194.909 297.312 192.223 294 192.223ZM288 246.223C288 242.909 290.688 240.223 294 240.223C297.312 240.223 300 242.909 300 246.223C300 249.536 297.312 252.223 294 252.223C290.688 252.223 288 249.536 288 246.223ZM294 288.223C290.688 288.223 288 290.909 288 294.223C288 297.536 290.688 300.223 294 300.223C297.312 300.223 300 297.536 300 294.223C300 290.909 297.312 288.223 294 288.223ZM342 0.222656C338.688 0.222656 336 2.90894 336 6.22266C336 9.53638 338.688 12.2227 342 12.2227C345.312 12.2227 348 9.53638 348 6.22266C348 2.90894 345.312 0.222656 342 0.222656ZM336 54.2227C336 50.9089 338.688 48.2227 342 48.2227C345.312 48.2227 348 50.9089 348 54.2227C348 57.5364 345.312 60.2227 342 60.2227C338.688 60.2227 336 57.5364 336 54.2227ZM342 96.2227C338.688 96.2227 336 98.9089 336 102.223C336 105.536 338.688 108.223 342 108.223C345.312 108.223 348 105.536 348 102.223C348 98.9089 345.312 96.2227 342 96.2227ZM336 150.223C336 146.909 338.688 144.223 342 144.223C345.312 144.223 348 146.909 348 150.223C348 153.536 345.312 156.223 342 156.223C338.688 156.223 336 153.536 336 150.223ZM342 192.223C338.688 192.223 336 194.909 336 198.223C336 201.536 338.688 204.223 342 204.223C345.312 204.223 348 201.536 348 198.223C348 194.909 345.312 192.223 342 192.223ZM336 246.223C336 242.909 338.688 240.223 342 240.223C345.312 240.223 348 242.909 348 246.223C348 249.536 345.312 252.223 342 252.223C338.688 252.223 336 249.536 336 246.223ZM342 288.223C338.688 288.223 336 290.909 336 294.223C336 297.536 338.688 300.223 342 300.223C345.312 300.223 348 297.536 348 294.223C348 290.909 345.312 288.223 342 288.223Z" fill="white"/>
</svg>
