<svg width="348" height="300" viewBox="0 0 348 300" fill="none" xmlns="http://www.w3.org/2000/svg">
<path fill-rule="evenodd" clip-rule="evenodd" d="M6 0C2.6875 0 0 2.68628 0 6C0 9.31372 2.6875 12 6 12C9.3125 12 12 9.31372 12 6C12 2.68628 9.3125 0 6 0ZM0 54C0 50.6863 2.6875 48 6 48C9.3125 48 12 50.6863 12 54C12 57.3137 9.3125 60 6 60C2.6875 60 0 57.3137 0 54ZM6 96C2.6875 96 0 98.6863 0 102C0 105.314 2.6875 108 6 108C9.3125 108 12 105.314 12 102C12 98.6863 9.3125 96 6 96ZM0 150C0 146.686 2.6875 144 6 144C9.3125 144 12 146.686 12 150C12 153.314 9.3125 156 6 156C2.6875 156 0 153.314 0 150ZM6 192C2.6875 192 0 194.686 0 198C0 201.314 2.6875 204 6 204C9.3125 204 12 201.314 12 198C12 194.686 9.3125 192 6 192ZM0 246C0 242.686 2.6875 240 6 240C9.3125 240 12 242.686 12 246C12 249.314 9.3125 252 6 252C2.6875 252 0 249.314 0 246ZM6 288C2.6875 288 0 290.686 0 294C0 297.314 2.6875 300 6 300C9.3125 300 12 297.314 12 294C12 290.686 9.3125 288 6 288ZM54 0C50.6875 0 48 2.68628 48 6C48 9.31372 50.6875 12 54 12C57.3125 12 60 9.31372 60 6C60 2.68628 57.3125 0 54 0ZM48 54C48 50.6863 50.6875 48 54 48C57.3125 48 60 50.6863 60 54C60 57.3137 57.3125 60 54 60C50.6875 60 48 57.3137 48 54ZM54 96C50.6875 96 48 98.6863 48 102C48 105.314 50.6875 108 54 108C57.3125 108 60 105.314 60 102C60 98.6863 57.3125 96 54 96ZM48 150C48 146.686 50.6875 144 54 144C57.3125 144 60 146.686 60 150C60 153.314 57.3125 156 54 156C50.6875 156 48 153.314 48 150ZM54 192C50.6875 192 48 194.686 48 198C48 201.314 50.6875 204 54 204C57.3125 204 60 201.314 60 198C60 194.686 57.3125 192 54 192ZM48 246C48 242.686 50.6875 240 54 240C57.3125 240 60 242.686 60 246C60 249.314 57.3125 252 54 252C50.6875 252 48 249.314 48 246ZM54 288C50.6875 288 48 290.686 48 294C48 297.314 50.6875 300 54 300C57.3125 300 60 297.314 60 294C60 290.686 57.3125 288 54 288ZM102 0C98.6875 0 96 2.68628 96 6C96 9.31372 98.6875 12 102 12C105.312 12 108 9.31372 108 6C108 2.68628 105.312 0 102 0ZM96 54C96 50.6863 98.6875 48 102 48C105.312 48 108 50.6863 108 54C108 57.3137 105.312 60 102 60C98.6875 60 96 57.3137 96 54ZM102 96C98.6875 96 96 98.6863 96 102C96 105.314 98.6875 108 102 108C105.312 108 108 105.314 108 102C108 98.6863 105.312 96 102 96ZM96 150C96 146.686 98.6875 144 102 144C105.312 144 108 146.686 108 150C108 153.314 105.312 156 102 156C98.6875 156 96 153.314 96 150ZM102 192C98.6875 192 96 194.686 96 198C96 201.314 98.6875 204 102 204C105.312 204 108 201.314 108 198C108 194.686 105.312 192 102 192ZM96 246C96 242.686 98.6875 240 102 240C105.312 240 108 242.686 108 246C108 249.314 105.312 252 102 252C98.6875 252 96 249.314 96 246ZM102 288C98.6875 288 96 290.686 96 294C96 297.314 98.6875 300 102 300C105.312 300 108 297.314 108 294C108 290.686 105.312 288 102 288ZM150 0C146.688 0 144 2.68628 144 6C144 9.31372 146.688 12 150 12C153.312 12 156 9.31372 156 6C156 2.68628 153.312 0 150 0ZM144 54C144 50.6863 146.688 48 150 48C153.312 48 156 50.6863 156 54C156 57.3137 153.312 60 150 60C146.688 60 144 57.3137 144 54ZM150 96C146.688 96 144 98.6863 144 102C144 105.314 146.688 108 150 108C153.312 108 156 105.314 156 102C156 98.6863 153.312 96 150 96ZM144 150C144 146.686 146.688 144 150 144C153.312 144 156 146.686 156 150C156 153.314 153.312 156 150 156C146.688 156 144 153.314 144 150ZM150 192C146.688 192 144 194.686 144 198C144 201.314 146.688 204 150 204C153.312 204 156 201.314 156 198C156 194.686 153.312 192 150 192ZM144 246C144 242.686 146.688 240 150 240C153.312 240 156 242.686 156 246C156 249.314 153.312 252 150 252C146.688 252 144 249.314 144 246ZM150 288C146.688 288 144 290.686 144 294C144 297.314 146.688 300 150 300C153.312 300 156 297.314 156 294C156 290.686 153.312 288 150 288ZM198 0C194.688 0 192 2.68628 192 6C192 9.31372 194.688 12 198 12C201.312 12 204 9.31372 204 6C204 2.68628 201.312 0 198 0ZM192 54C192 50.6863 194.688 48 198 48C201.312 48 204 50.6863 204 54C204 57.3137 201.312 60 198 60C194.688 60 192 57.3137 192 54ZM198 96C194.688 96 192 98.6863 192 102C192 105.314 194.688 108 198 108C201.312 108 204 105.314 204 102C204 98.6863 201.312 96 198 96ZM192 150C192 146.686 194.688 144 198 144C201.312 144 204 146.686 204 150C204 153.314 201.312 156 198 156C194.688 156 192 153.314 192 150ZM198 192C194.688 192 192 194.686 192 198C192 201.314 194.688 204 198 204C201.312 204 204 201.314 204 198C204 194.686 201.312 192 198 192ZM192 246C192 242.686 194.688 240 198 240C201.312 240 204 242.686 204 246C204 249.314 201.312 252 198 252C194.688 252 192 249.314 192 246ZM198 288C194.688 288 192 290.686 192 294C192 297.314 194.688 300 198 300C201.312 300 204 297.314 204 294C204 290.686 201.312 288 198 288ZM246 0C242.688 0 240 2.68628 240 6C240 9.31372 242.688 12 246 12C249.312 12 252 9.31372 252 6C252 2.68628 249.312 0 246 0ZM240 54C240 50.6863 242.688 48 246 48C249.312 48 252 50.6863 252 54C252 57.3137 249.312 60 246 60C242.688 60 240 57.3137 240 54ZM246 96C242.688 96 240 98.6863 240 102C240 105.314 242.688 108 246 108C249.312 108 252 105.314 252 102C252 98.6863 249.312 96 246 96ZM240 150C240 146.686 242.688 144 246 144C249.312 144 252 146.686 252 150C252 153.314 249.312 156 246 156C242.688 156 240 153.314 240 150ZM246 192C242.688 192 240 194.686 240 198C240 201.314 242.688 204 246 204C249.312 204 252 201.314 252 198C252 194.686 249.312 192 246 192ZM240 246C240 242.686 242.688 240 246 240C249.312 240 252 242.686 252 246C252 249.314 249.312 252 246 252C242.688 252 240 249.314 240 246ZM246 288C242.688 288 240 290.686 240 294C240 297.314 242.688 300 246 300C249.312 300 252 297.314 252 294C252 290.686 249.312 288 246 288ZM294 0C290.688 0 288 2.68628 288 6C288 9.31372 290.688 12 294 12C297.312 12 300 9.31372 300 6C300 2.68628 297.312 0 294 0ZM288 54C288 50.6863 290.688 48 294 48C297.312 48 300 50.6863 300 54C300 57.3137 297.312 60 294 60C290.688 60 288 57.3137 288 54ZM294 96C290.688 96 288 98.6863 288 102C288 105.314 290.688 108 294 108C297.312 108 300 105.314 300 102C300 98.6863 297.312 96 294 96ZM288 150C288 146.686 290.688 144 294 144C297.312 144 300 146.686 300 150C300 153.314 297.312 156 294 156C290.688 156 288 153.314 288 150ZM294 192C290.688 192 288 194.686 288 198C288 201.314 290.688 204 294 204C297.312 204 300 201.314 300 198C300 194.686 297.312 192 294 192ZM288 246C288 242.686 290.688 240 294 240C297.312 240 300 242.686 300 246C300 249.314 297.312 252 294 252C290.688 252 288 249.314 288 246ZM294 288C290.688 288 288 290.686 288 294C288 297.314 290.688 300 294 300C297.312 300 300 297.314 300 294C300 290.686 297.312 288 294 288ZM342 0C338.688 0 336 2.68628 336 6C336 9.31372 338.688 12 342 12C345.312 12 348 9.31372 348 6C348 2.68628 345.312 0 342 0ZM336 54C336 50.6863 338.688 48 342 48C345.312 48 348 50.6863 348 54C348 57.3137 345.312 60 342 60C338.688 60 336 57.3137 336 54ZM342 96C338.688 96 336 98.6863 336 102C336 105.314 338.688 108 342 108C345.312 108 348 105.314 348 102C348 98.6863 345.312 96 342 96ZM336 150C336 146.686 338.688 144 342 144C345.312 144 348 146.686 348 150C348 153.314 345.312 156 342 156C338.688 156 336 153.314 336 150ZM342 192C338.688 192 336 194.686 336 198C336 201.314 338.688 204 342 204C345.312 204 348 201.314 348 198C348 194.686 345.312 192 342 192ZM336 246C336 242.686 338.688 240 342 240C345.312 240 348 242.686 348 246C348 249.314 345.312 252 342 252C338.688 252 336 249.314 336 246ZM342 288C338.688 288 336 290.686 336 294C336 297.314 338.688 300 342 300C345.312 300 348 297.314 348 294C348 290.686 345.312 288 342 288Z" fill="#F1E7DC"/>
</svg>
