<svg width="588" height="444" viewBox="0 0 588 444" fill="none" xmlns="http://www.w3.org/2000/svg">
<path fill-rule="evenodd" clip-rule="evenodd" d="M6 0C2.6875 0 0 2.68628 0 6C0 9.31372 2.6875 12 6 12C9.3125 12 12 9.31372 12 6C12 2.68628 9.3125 0 6 0ZM6 48C2.6875 48 0 50.6863 0 54C0 57.3137 2.6875 60 6 60C9.3125 60 12 57.3137 12 54C12 50.6863 9.3125 48 6 48ZM0 102C0 98.6863 2.6875 96 6 96C9.3125 96 12 98.6863 12 102C12 105.314 9.3125 108 6 108C2.6875 108 0 105.314 0 102ZM6 144C2.6875 144 0 146.686 0 150C0 153.314 2.6875 156 6 156C9.3125 156 12 153.314 12 150C12 146.686 9.3125 144 6 144ZM0 198C0 194.686 2.6875 192 6 192C9.3125 192 12 194.686 12 198C12 201.314 9.3125 204 6 204C2.6875 204 0 201.314 0 198ZM6 240C2.6875 240 0 242.686 0 246C0 249.314 2.6875 252 6 252C9.3125 252 12 249.314 12 246C12 242.686 9.3125 240 6 240ZM0 294C0 290.686 2.6875 288 6 288C9.3125 288 12 290.686 12 294C12 297.314 9.3125 300 6 300C2.6875 300 0 297.314 0 294ZM6 336C2.6875 336 0 338.686 0 342C0 345.314 2.6875 348 6 348C9.3125 348 12 345.314 12 342C12 338.686 9.3125 336 6 336ZM0 390C0 386.686 2.6875 384 6 384C9.3125 384 12 386.686 12 390C12 393.314 9.3125 396 6 396C2.6875 396 0 393.314 0 390ZM6 432C2.6875 432 0 434.686 0 438C0 441.314 2.6875 444 6 444C9.3125 444 12 441.314 12 438C12 434.686 9.3125 432 6 432ZM48 6C48 2.68628 50.6875 0 54 0C57.3125 0 60 2.68628 60 6C60 9.31372 57.3125 12 54 12C50.6875 12 48 9.31372 48 6ZM54 48C50.6875 48 48 50.6863 48 54C48 57.3137 50.6875 60 54 60C57.3125 60 60 57.3137 60 54C60 50.6863 57.3125 48 54 48ZM48 102C48 98.6863 50.6875 96 54 96C57.3125 96 60 98.6863 60 102C60 105.314 57.3125 108 54 108C50.6875 108 48 105.314 48 102ZM54 144C50.6875 144 48 146.686 48 150C48 153.314 50.6875 156 54 156C57.3125 156 60 153.314 60 150C60 146.686 57.3125 144 54 144ZM48 198C48 194.686 50.6875 192 54 192C57.3125 192 60 194.686 60 198C60 201.314 57.3125 204 54 204C50.6875 204 48 201.314 48 198ZM54 240C50.6875 240 48 242.686 48 246C48 249.314 50.6875 252 54 252C57.3125 252 60 249.314 60 246C60 242.686 57.3125 240 54 240ZM48 294C48 290.686 50.6875 288 54 288C57.3125 288 60 290.686 60 294C60 297.314 57.3125 300 54 300C50.6875 300 48 297.314 48 294ZM54 336C50.6875 336 48 338.686 48 342C48 345.314 50.6875 348 54 348C57.3125 348 60 345.314 60 342C60 338.686 57.3125 336 54 336ZM48 390C48 386.686 50.6875 384 54 384C57.3125 384 60 386.686 60 390C60 393.314 57.3125 396 54 396C50.6875 396 48 393.314 48 390ZM54 432C50.6875 432 48 434.686 48 438C48 441.314 50.6875 444 54 444C57.3125 444 60 441.314 60 438C60 434.686 57.3125 432 54 432ZM96 6C96 2.68628 98.6875 0 102 0C105.312 0 108 2.68628 108 6C108 9.31372 105.312 12 102 12C98.6875 12 96 9.31372 96 6ZM102 48C98.6875 48 96 50.6863 96 54C96 57.3137 98.6875 60 102 60C105.312 60 108 57.3137 108 54C108 50.6863 105.312 48 102 48ZM96 102C96 98.6863 98.6875 96 102 96C105.312 96 108 98.6863 108 102C108 105.314 105.312 108 102 108C98.6875 108 96 105.314 96 102ZM102 144C98.6875 144 96 146.686 96 150C96 153.314 98.6875 156 102 156C105.312 156 108 153.314 108 150C108 146.686 105.312 144 102 144ZM96 198C96 194.686 98.6875 192 102 192C105.312 192 108 194.686 108 198C108 201.314 105.312 204 102 204C98.6875 204 96 201.314 96 198ZM102 240C98.6875 240 96 242.686 96 246C96 249.314 98.6875 252 102 252C105.312 252 108 249.314 108 246C108 242.686 105.312 240 102 240ZM96 294C96 290.686 98.6875 288 102 288C105.312 288 108 290.686 108 294C108 297.314 105.312 300 102 300C98.6875 300 96 297.314 96 294ZM102 336C98.6875 336 96 338.686 96 342C96 345.314 98.6875 348 102 348C105.312 348 108 345.314 108 342C108 338.686 105.312 336 102 336ZM96 390C96 386.686 98.6875 384 102 384C105.312 384 108 386.686 108 390C108 393.314 105.312 396 102 396C98.6875 396 96 393.314 96 390ZM102 432C98.6875 432 96 434.686 96 438C96 441.314 98.6875 444 102 444C105.312 444 108 441.314 108 438C108 434.686 105.312 432 102 432ZM144 6C144 2.68628 146.688 0 150 0C153.312 0 156 2.68628 156 6C156 9.31372 153.312 12 150 12C146.688 12 144 9.31372 144 6ZM150 48C146.688 48 144 50.6863 144 54C144 57.3137 146.688 60 150 60C153.312 60 156 57.3137 156 54C156 50.6863 153.312 48 150 48ZM144 102C144 98.6863 146.688 96 150 96C153.312 96 156 98.6863 156 102C156 105.314 153.312 108 150 108C146.688 108 144 105.314 144 102ZM150 144C146.688 144 144 146.686 144 150C144 153.314 146.688 156 150 156C153.312 156 156 153.314 156 150C156 146.686 153.312 144 150 144ZM144 198C144 194.686 146.688 192 150 192C153.312 192 156 194.686 156 198C156 201.314 153.312 204 150 204C146.688 204 144 201.314 144 198ZM150 240C146.688 240 144 242.686 144 246C144 249.314 146.688 252 150 252C153.312 252 156 249.314 156 246C156 242.686 153.312 240 150 240ZM144 294C144 290.686 146.688 288 150 288C153.312 288 156 290.686 156 294C156 297.314 153.312 300 150 300C146.688 300 144 297.314 144 294ZM150 336C146.688 336 144 338.686 144 342C144 345.314 146.688 348 150 348C153.312 348 156 345.314 156 342C156 338.686 153.312 336 150 336ZM144 390C144 386.686 146.688 384 150 384C153.312 384 156 386.686 156 390C156 393.314 153.312 396 150 396C146.688 396 144 393.314 144 390ZM150 432C146.688 432 144 434.686 144 438C144 441.314 146.688 444 150 444C153.312 444 156 441.314 156 438C156 434.686 153.312 432 150 432ZM192 6C192 2.68628 194.688 0 198 0C201.312 0 204 2.68628 204 6C204 9.31372 201.312 12 198 12C194.688 12 192 9.31372 192 6ZM198 48C194.688 48 192 50.6863 192 54C192 57.3137 194.688 60 198 60C201.312 60 204 57.3137 204 54C204 50.6863 201.312 48 198 48ZM192 102C192 98.6863 194.688 96 198 96C201.312 96 204 98.6863 204 102C204 105.314 201.312 108 198 108C194.688 108 192 105.314 192 102ZM198 144C194.688 144 192 146.686 192 150C192 153.314 194.688 156 198 156C201.312 156 204 153.314 204 150C204 146.686 201.312 144 198 144ZM192 198C192 194.686 194.688 192 198 192C201.312 192 204 194.686 204 198C204 201.314 201.312 204 198 204C194.688 204 192 201.314 192 198ZM198 240C194.688 240 192 242.686 192 246C192 249.314 194.688 252 198 252C201.312 252 204 249.314 204 246C204 242.686 201.312 240 198 240ZM192 294C192 290.686 194.688 288 198 288C201.312 288 204 290.686 204 294C204 297.314 201.312 300 198 300C194.688 300 192 297.314 192 294ZM198 336C194.688 336 192 338.686 192 342C192 345.314 194.688 348 198 348C201.312 348 204 345.314 204 342C204 338.686 201.312 336 198 336ZM192 390C192 386.686 194.688 384 198 384C201.312 384 204 386.686 204 390C204 393.314 201.312 396 198 396C194.688 396 192 393.314 192 390ZM198 432C194.688 432 192 434.686 192 438C192 441.314 194.688 444 198 444C201.312 444 204 441.314 204 438C204 434.686 201.312 432 198 432ZM240 6C240 2.68628 242.688 0 246 0C249.312 0 252 2.68628 252 6C252 9.31372 249.312 12 246 12C242.688 12 240 9.31372 240 6ZM246 48C242.688 48 240 50.6863 240 54C240 57.3137 242.688 60 246 60C249.312 60 252 57.3137 252 54C252 50.6863 249.312 48 246 48ZM240 102C240 98.6863 242.688 96 246 96C249.312 96 252 98.6863 252 102C252 105.314 249.312 108 246 108C242.688 108 240 105.314 240 102ZM246 144C242.688 144 240 146.686 240 150C240 153.314 242.688 156 246 156C249.312 156 252 153.314 252 150C252 146.686 249.312 144 246 144ZM240 198C240 194.686 242.688 192 246 192C249.312 192 252 194.686 252 198C252 201.314 249.312 204 246 204C242.688 204 240 201.314 240 198ZM246 240C242.688 240 240 242.686 240 246C240 249.314 242.688 252 246 252C249.312 252 252 249.314 252 246C252 242.686 249.312 240 246 240ZM240 294C240 290.686 242.688 288 246 288C249.312 288 252 290.686 252 294C252 297.314 249.312 300 246 300C242.688 300 240 297.314 240 294ZM246 336C242.688 336 240 338.686 240 342C240 345.314 242.688 348 246 348C249.312 348 252 345.314 252 342C252 338.686 249.312 336 246 336ZM240 390C240 386.686 242.688 384 246 384C249.312 384 252 386.686 252 390C252 393.314 249.312 396 246 396C242.688 396 240 393.314 240 390ZM246 432C242.688 432 240 434.686 240 438C240 441.314 242.688 444 246 444C249.312 444 252 441.314 252 438C252 434.686 249.312 432 246 432ZM288 6C288 2.68628 290.688 0 294 0C297.312 0 300 2.68628 300 6C300 9.31372 297.312 12 294 12C290.688 12 288 9.31372 288 6ZM294 48C290.688 48 288 50.6863 288 54C288 57.3137 290.688 60 294 60C297.312 60 300 57.3137 300 54C300 50.6863 297.312 48 294 48ZM288 102C288 98.6863 290.688 96 294 96C297.312 96 300 98.6863 300 102C300 105.314 297.312 108 294 108C290.688 108 288 105.314 288 102ZM294 144C290.688 144 288 146.686 288 150C288 153.314 290.688 156 294 156C297.312 156 300 153.314 300 150C300 146.686 297.312 144 294 144ZM288 198C288 194.686 290.688 192 294 192C297.312 192 300 194.686 300 198C300 201.314 297.312 204 294 204C290.688 204 288 201.314 288 198ZM294 240C290.688 240 288 242.686 288 246C288 249.314 290.688 252 294 252C297.312 252 300 249.314 300 246C300 242.686 297.312 240 294 240ZM288 294C288 290.686 290.688 288 294 288C297.312 288 300 290.686 300 294C300 297.314 297.312 300 294 300C290.688 300 288 297.314 288 294ZM294 336C290.688 336 288 338.686 288 342C288 345.314 290.688 348 294 348C297.312 348 300 345.314 300 342C300 338.686 297.312 336 294 336ZM288 390C288 386.686 290.688 384 294 384C297.312 384 300 386.686 300 390C300 393.314 297.312 396 294 396C290.688 396 288 393.314 288 390ZM294 432C290.688 432 288 434.686 288 438C288 441.314 290.688 444 294 444C297.312 444 300 441.314 300 438C300 434.686 297.312 432 294 432ZM336 6C336 2.68628 338.688 0 342 0C345.312 0 348 2.68628 348 6C348 9.31372 345.312 12 342 12C338.688 12 336 9.31372 336 6ZM342 48C338.688 48 336 50.6863 336 54C336 57.3137 338.688 60 342 60C345.312 60 348 57.3137 348 54C348 50.6863 345.312 48 342 48ZM336 102C336 98.6863 338.688 96 342 96C345.312 96 348 98.6863 348 102C348 105.314 345.312 108 342 108C338.688 108 336 105.314 336 102ZM342 144C338.688 144 336 146.686 336 150C336 153.314 338.688 156 342 156C345.312 156 348 153.314 348 150C348 146.686 345.312 144 342 144ZM336 198C336 194.686 338.688 192 342 192C345.312 192 348 194.686 348 198C348 201.314 345.312 204 342 204C338.688 204 336 201.314 336 198ZM342 240C338.688 240 336 242.686 336 246C336 249.314 338.688 252 342 252C345.312 252 348 249.314 348 246C348 242.686 345.312 240 342 240ZM336 294C336 290.686 338.688 288 342 288C345.312 288 348 290.686 348 294C348 297.314 345.312 300 342 300C338.688 300 336 297.314 336 294ZM342 336C338.688 336 336 338.686 336 342C336 345.314 338.688 348 342 348C345.312 348 348 345.314 348 342C348 338.686 345.312 336 342 336ZM336 390C336 386.686 338.688 384 342 384C345.312 384 348 386.686 348 390C348 393.314 345.312 396 342 396C338.688 396 336 393.314 336 390ZM342 432C338.688 432 336 434.686 336 438C336 441.314 338.688 444 342 444C345.312 444 348 441.314 348 438C348 434.686 345.312 432 342 432ZM384 6C384 2.68628 386.688 0 390 0C393.312 0 396 2.68628 396 6C396 9.31372 393.312 12 390 12C386.688 12 384 9.31372 384 6ZM390 48C386.688 48 384 50.6863 384 54C384 57.3137 386.688 60 390 60C393.312 60 396 57.3137 396 54C396 50.6863 393.312 48 390 48ZM384 102C384 98.6863 386.688 96 390 96C393.312 96 396 98.6863 396 102C396 105.314 393.312 108 390 108C386.688 108 384 105.314 384 102ZM390 144C386.688 144 384 146.686 384 150C384 153.314 386.688 156 390 156C393.312 156 396 153.314 396 150C396 146.686 393.312 144 390 144ZM384 198C384 194.686 386.688 192 390 192C393.312 192 396 194.686 396 198C396 201.314 393.312 204 390 204C386.688 204 384 201.314 384 198ZM390 240C386.688 240 384 242.686 384 246C384 249.314 386.688 252 390 252C393.312 252 396 249.314 396 246C396 242.686 393.312 240 390 240ZM384 294C384 290.686 386.688 288 390 288C393.312 288 396 290.686 396 294C396 297.314 393.312 300 390 300C386.688 300 384 297.314 384 294ZM390 336C386.688 336 384 338.686 384 342C384 345.314 386.688 348 390 348C393.312 348 396 345.314 396 342C396 338.686 393.312 336 390 336ZM384 390C384 386.686 386.688 384 390 384C393.312 384 396 386.686 396 390C396 393.314 393.312 396 390 396C386.688 396 384 393.314 384 390ZM390 432C386.688 432 384 434.686 384 438C384 441.314 386.688 444 390 444C393.312 444 396 441.314 396 438C396 434.686 393.312 432 390 432ZM432 6C432 2.68628 434.688 0 438 0C441.312 0 444 2.68628 444 6C444 9.31372 441.312 12 438 12C434.688 12 432 9.31372 432 6ZM438 48C434.688 48 432 50.6863 432 54C432 57.3137 434.688 60 438 60C441.312 60 444 57.3137 444 54C444 50.6863 441.312 48 438 48ZM432 102C432 98.6863 434.688 96 438 96C441.312 96 444 98.6863 444 102C444 105.314 441.312 108 438 108C434.688 108 432 105.314 432 102ZM438 144C434.688 144 432 146.686 432 150C432 153.314 434.688 156 438 156C441.312 156 444 153.314 444 150C444 146.686 441.312 144 438 144ZM432 198C432 194.686 434.688 192 438 192C441.312 192 444 194.686 444 198C444 201.314 441.312 204 438 204C434.688 204 432 201.314 432 198ZM438 240C434.688 240 432 242.686 432 246C432 249.314 434.688 252 438 252C441.312 252 444 249.314 444 246C444 242.686 441.312 240 438 240ZM432 294C432 290.686 434.688 288 438 288C441.312 288 444 290.686 444 294C444 297.314 441.312 300 438 300C434.688 300 432 297.314 432 294ZM438 336C434.688 336 432 338.686 432 342C432 345.314 434.688 348 438 348C441.312 348 444 345.314 444 342C444 338.686 441.312 336 438 336ZM432 390C432 386.686 434.688 384 438 384C441.312 384 444 386.686 444 390C444 393.314 441.312 396 438 396C434.688 396 432 393.314 432 390ZM438 432C434.688 432 432 434.686 432 438C432 441.314 434.688 444 438 444C441.312 444 444 441.314 444 438C444 434.686 441.312 432 438 432ZM480 6C480 2.68628 482.688 0 486 0C489.312 0 492 2.68628 492 6C492 9.31372 489.312 12 486 12C482.688 12 480 9.31372 480 6ZM486 48C482.688 48 480 50.6863 480 54C480 57.3137 482.688 60 486 60C489.312 60 492 57.3137 492 54C492 50.6863 489.312 48 486 48ZM480 102C480 98.6863 482.688 96 486 96C489.312 96 492 98.6863 492 102C492 105.314 489.312 108 486 108C482.688 108 480 105.314 480 102ZM486 144C482.688 144 480 146.686 480 150C480 153.314 482.688 156 486 156C489.312 156 492 153.314 492 150C492 146.686 489.312 144 486 144ZM480 198C480 194.686 482.688 192 486 192C489.312 192 492 194.686 492 198C492 201.314 489.312 204 486 204C482.688 204 480 201.314 480 198ZM486 240C482.688 240 480 242.686 480 246C480 249.314 482.688 252 486 252C489.312 252 492 249.314 492 246C492 242.686 489.312 240 486 240ZM480 294C480 290.686 482.688 288 486 288C489.312 288 492 290.686 492 294C492 297.314 489.312 300 486 300C482.688 300 480 297.314 480 294ZM486 336C482.688 336 480 338.686 480 342C480 345.314 482.688 348 486 348C489.312 348 492 345.314 492 342C492 338.686 489.312 336 486 336ZM480 390C480 386.686 482.688 384 486 384C489.312 384 492 386.686 492 390C492 393.314 489.312 396 486 396C482.688 396 480 393.314 480 390ZM486 432C482.688 432 480 434.686 480 438C480 441.314 482.688 444 486 444C489.312 444 492 441.314 492 438C492 434.686 489.312 432 486 432ZM528 6C528 2.68628 530.688 0 534 0C537.312 0 540 2.68628 540 6C540 9.31372 537.312 12 534 12C530.688 12 528 9.31372 528 6ZM534 48C530.688 48 528 50.6863 528 54C528 57.3137 530.688 60 534 60C537.312 60 540 57.3137 540 54C540 50.6863 537.312 48 534 48ZM528 102C528 98.6863 530.688 96 534 96C537.312 96 540 98.6863 540 102C540 105.314 537.312 108 534 108C530.688 108 528 105.314 528 102ZM534 144C530.688 144 528 146.686 528 150C528 153.314 530.688 156 534 156C537.312 156 540 153.314 540 150C540 146.686 537.312 144 534 144ZM528 198C528 194.686 530.688 192 534 192C537.312 192 540 194.686 540 198C540 201.314 537.312 204 534 204C530.688 204 528 201.314 528 198ZM534 240C530.688 240 528 242.686 528 246C528 249.314 530.688 252 534 252C537.312 252 540 249.314 540 246C540 242.686 537.312 240 534 240ZM528 294C528 290.686 530.688 288 534 288C537.312 288 540 290.686 540 294C540 297.314 537.312 300 534 300C530.688 300 528 297.314 528 294ZM534 336C530.688 336 528 338.686 528 342C528 345.314 530.688 348 534 348C537.312 348 540 345.314 540 342C540 338.686 537.312 336 534 336ZM528 390C528 386.686 530.688 384 534 384C537.312 384 540 386.686 540 390C540 393.314 537.312 396 534 396C530.688 396 528 393.314 528 390ZM534 432C530.688 432 528 434.686 528 438C528 441.314 530.688 444 534 444C537.312 444 540 441.314 540 438C540 434.686 537.312 432 534 432ZM576 6C576 2.68628 578.688 0 582 0C585.312 0 588 2.68628 588 6C588 9.31372 585.312 12 582 12C578.688 12 576 9.31372 576 6ZM582 48C578.688 48 576 50.6863 576 54C576 57.3137 578.688 60 582 60C585.312 60 588 57.3137 588 54C588 50.6863 585.312 48 582 48ZM576 102C576 98.6863 578.688 96 582 96C585.312 96 588 98.6863 588 102C588 105.314 585.312 108 582 108C578.688 108 576 105.314 576 102ZM582 144C578.688 144 576 146.686 576 150C576 153.314 578.688 156 582 156C585.312 156 588 153.314 588 150C588 146.686 585.312 144 582 144ZM576 198C576 194.686 578.688 192 582 192C585.312 192 588 194.686 588 198C588 201.314 585.312 204 582 204C578.688 204 576 201.314 576 198ZM582 240C578.688 240 576 242.686 576 246C576 249.314 578.688 252 582 252C585.312 252 588 249.314 588 246C588 242.686 585.312 240 582 240ZM576 294C576 290.686 578.688 288 582 288C585.312 288 588 290.686 588 294C588 297.314 585.312 300 582 300C578.688 300 576 297.314 576 294ZM582 336C578.688 336 576 338.686 576 342C576 345.314 578.688 348 582 348C585.312 348 588 345.314 588 342C588 338.686 585.312 336 582 336ZM576 390C576 386.686 578.688 384 582 384C585.312 384 588 386.686 588 390C588 393.314 585.312 396 582 396C578.688 396 576 393.314 576 390ZM582 432C578.688 432 576 434.686 576 438C576 441.314 578.688 444 582 444C585.312 444 588 441.314 588 438C588 434.686 585.312 432 582 432Z" fill="#E1DBD5"/>
</svg>
