<svg width="348" height="301" viewBox="0 0 348 301" fill="none" xmlns="http://www.w3.org/2000/svg">
<path fill-rule="evenodd" clip-rule="evenodd" d="M6 0.880859C2.6875 0.880859 0 3.56714 0 6.88086C0 10.1946 2.6875 12.8809 6 12.8809C9.3125 12.8809 12 10.1946 12 6.88086C12 3.56714 9.3125 0.880859 6 0.880859ZM0 54.8809C0 51.5671 2.6875 48.8809 6 48.8809C9.3125 48.8809 12 51.5671 12 54.8809C12 58.1946 9.3125 60.8809 6 60.8809C2.6875 60.8809 0 58.1946 0 54.8809ZM6 96.8809C2.6875 96.8809 0 99.5671 0 102.881C0 106.195 2.6875 108.881 6 108.881C9.3125 108.881 12 106.195 12 102.881C12 99.5671 9.3125 96.8809 6 96.8809ZM0 150.881C0 147.567 2.6875 144.881 6 144.881C9.3125 144.881 12 147.567 12 150.881C12 154.195 9.3125 156.881 6 156.881C2.6875 156.881 0 154.195 0 150.881ZM6 192.881C2.6875 192.881 0 195.567 0 198.881C0 202.195 2.6875 204.881 6 204.881C9.3125 204.881 12 202.195 12 198.881C12 195.567 9.3125 192.881 6 192.881ZM0 246.881C0 243.567 2.6875 240.881 6 240.881C9.3125 240.881 12 243.567 12 246.881C12 250.195 9.3125 252.881 6 252.881C2.6875 252.881 0 250.195 0 246.881ZM6 288.881C2.6875 288.881 0 291.567 0 294.881C0 298.195 2.6875 300.881 6 300.881C9.3125 300.881 12 298.195 12 294.881C12 291.567 9.3125 288.881 6 288.881ZM54 0.880859C50.6875 0.880859 48 3.56714 48 6.88086C48 10.1946 50.6875 12.8809 54 12.8809C57.3125 12.8809 60 10.1946 60 6.88086C60 3.56714 57.3125 0.880859 54 0.880859ZM48 54.8809C48 51.5671 50.6875 48.8809 54 48.8809C57.3125 48.8809 60 51.5671 60 54.8809C60 58.1946 57.3125 60.8809 54 60.8809C50.6875 60.8809 48 58.1946 48 54.8809ZM54 96.8809C50.6875 96.8809 48 99.5671 48 102.881C48 106.195 50.6875 108.881 54 108.881C57.3125 108.881 60 106.195 60 102.881C60 99.5671 57.3125 96.8809 54 96.8809ZM48 150.881C48 147.567 50.6875 144.881 54 144.881C57.3125 144.881 60 147.567 60 150.881C60 154.195 57.3125 156.881 54 156.881C50.6875 156.881 48 154.195 48 150.881ZM54 192.881C50.6875 192.881 48 195.567 48 198.881C48 202.195 50.6875 204.881 54 204.881C57.3125 204.881 60 202.195 60 198.881C60 195.567 57.3125 192.881 54 192.881ZM48 246.881C48 243.567 50.6875 240.881 54 240.881C57.3125 240.881 60 243.567 60 246.881C60 250.195 57.3125 252.881 54 252.881C50.6875 252.881 48 250.195 48 246.881ZM54 288.881C50.6875 288.881 48 291.567 48 294.881C48 298.195 50.6875 300.881 54 300.881C57.3125 300.881 60 298.195 60 294.881C60 291.567 57.3125 288.881 54 288.881ZM102 0.880859C98.6875 0.880859 96 3.56714 96 6.88086C96 10.1946 98.6875 12.8809 102 12.8809C105.312 12.8809 108 10.1946 108 6.88086C108 3.56714 105.312 0.880859 102 0.880859ZM96 54.8809C96 51.5671 98.6875 48.8809 102 48.8809C105.312 48.8809 108 51.5671 108 54.8809C108 58.1946 105.312 60.8809 102 60.8809C98.6875 60.8809 96 58.1946 96 54.8809ZM102 96.8809C98.6875 96.8809 96 99.5671 96 102.881C96 106.195 98.6875 108.881 102 108.881C105.312 108.881 108 106.195 108 102.881C108 99.5671 105.312 96.8809 102 96.8809ZM96 150.881C96 147.567 98.6875 144.881 102 144.881C105.312 144.881 108 147.567 108 150.881C108 154.195 105.312 156.881 102 156.881C98.6875 156.881 96 154.195 96 150.881ZM102 192.881C98.6875 192.881 96 195.567 96 198.881C96 202.195 98.6875 204.881 102 204.881C105.312 204.881 108 202.195 108 198.881C108 195.567 105.312 192.881 102 192.881ZM96 246.881C96 243.567 98.6875 240.881 102 240.881C105.312 240.881 108 243.567 108 246.881C108 250.195 105.312 252.881 102 252.881C98.6875 252.881 96 250.195 96 246.881ZM102 288.881C98.6875 288.881 96 291.567 96 294.881C96 298.195 98.6875 300.881 102 300.881C105.312 300.881 108 298.195 108 294.881C108 291.567 105.312 288.881 102 288.881ZM150 0.880859C146.688 0.880859 144 3.56714 144 6.88086C144 10.1946 146.688 12.8809 150 12.8809C153.312 12.8809 156 10.1946 156 6.88086C156 3.56714 153.312 0.880859 150 0.880859ZM144 54.8809C144 51.5671 146.688 48.8809 150 48.8809C153.312 48.8809 156 51.5671 156 54.8809C156 58.1946 153.312 60.8809 150 60.8809C146.688 60.8809 144 58.1946 144 54.8809ZM150 96.8809C146.688 96.8809 144 99.5671 144 102.881C144 106.195 146.688 108.881 150 108.881C153.312 108.881 156 106.195 156 102.881C156 99.5671 153.312 96.8809 150 96.8809ZM144 150.881C144 147.567 146.688 144.881 150 144.881C153.312 144.881 156 147.567 156 150.881C156 154.195 153.312 156.881 150 156.881C146.688 156.881 144 154.195 144 150.881ZM150 192.881C146.688 192.881 144 195.567 144 198.881C144 202.195 146.688 204.881 150 204.881C153.312 204.881 156 202.195 156 198.881C156 195.567 153.312 192.881 150 192.881ZM144 246.881C144 243.567 146.688 240.881 150 240.881C153.312 240.881 156 243.567 156 246.881C156 250.195 153.312 252.881 150 252.881C146.688 252.881 144 250.195 144 246.881ZM150 288.881C146.688 288.881 144 291.567 144 294.881C144 298.195 146.688 300.881 150 300.881C153.312 300.881 156 298.195 156 294.881C156 291.567 153.312 288.881 150 288.881ZM198 0.880859C194.688 0.880859 192 3.56714 192 6.88086C192 10.1946 194.688 12.8809 198 12.8809C201.312 12.8809 204 10.1946 204 6.88086C204 3.56714 201.312 0.880859 198 0.880859ZM192 54.8809C192 51.5671 194.688 48.8809 198 48.8809C201.312 48.8809 204 51.5671 204 54.8809C204 58.1946 201.312 60.8809 198 60.8809C194.688 60.8809 192 58.1946 192 54.8809ZM198 96.8809C194.688 96.8809 192 99.5671 192 102.881C192 106.195 194.688 108.881 198 108.881C201.312 108.881 204 106.195 204 102.881C204 99.5671 201.312 96.8809 198 96.8809ZM192 150.881C192 147.567 194.688 144.881 198 144.881C201.312 144.881 204 147.567 204 150.881C204 154.195 201.312 156.881 198 156.881C194.688 156.881 192 154.195 192 150.881ZM198 192.881C194.688 192.881 192 195.567 192 198.881C192 202.195 194.688 204.881 198 204.881C201.312 204.881 204 202.195 204 198.881C204 195.567 201.312 192.881 198 192.881ZM192 246.881C192 243.567 194.688 240.881 198 240.881C201.312 240.881 204 243.567 204 246.881C204 250.195 201.312 252.881 198 252.881C194.688 252.881 192 250.195 192 246.881ZM198 288.881C194.688 288.881 192 291.567 192 294.881C192 298.195 194.688 300.881 198 300.881C201.312 300.881 204 298.195 204 294.881C204 291.567 201.312 288.881 198 288.881ZM246 0.880859C242.688 0.880859 240 3.56714 240 6.88086C240 10.1946 242.688 12.8809 246 12.8809C249.312 12.8809 252 10.1946 252 6.88086C252 3.56714 249.312 0.880859 246 0.880859ZM240 54.8809C240 51.5671 242.688 48.8809 246 48.8809C249.312 48.8809 252 51.5671 252 54.8809C252 58.1946 249.312 60.8809 246 60.8809C242.688 60.8809 240 58.1946 240 54.8809ZM246 96.8809C242.688 96.8809 240 99.5671 240 102.881C240 106.195 242.688 108.881 246 108.881C249.312 108.881 252 106.195 252 102.881C252 99.5671 249.312 96.8809 246 96.8809ZM240 150.881C240 147.567 242.688 144.881 246 144.881C249.312 144.881 252 147.567 252 150.881C252 154.195 249.312 156.881 246 156.881C242.688 156.881 240 154.195 240 150.881ZM246 192.881C242.688 192.881 240 195.567 240 198.881C240 202.195 242.688 204.881 246 204.881C249.312 204.881 252 202.195 252 198.881C252 195.567 249.312 192.881 246 192.881ZM240 246.881C240 243.567 242.688 240.881 246 240.881C249.312 240.881 252 243.567 252 246.881C252 250.195 249.312 252.881 246 252.881C242.688 252.881 240 250.195 240 246.881ZM246 288.881C242.688 288.881 240 291.567 240 294.881C240 298.195 242.688 300.881 246 300.881C249.312 300.881 252 298.195 252 294.881C252 291.567 249.312 288.881 246 288.881ZM294 0.880859C290.688 0.880859 288 3.56714 288 6.88086C288 10.1946 290.688 12.8809 294 12.8809C297.312 12.8809 300 10.1946 300 6.88086C300 3.56714 297.312 0.880859 294 0.880859ZM288 54.8809C288 51.5671 290.688 48.8809 294 48.8809C297.312 48.8809 300 51.5671 300 54.8809C300 58.1946 297.312 60.8809 294 60.8809C290.688 60.8809 288 58.1946 288 54.8809ZM294 96.8809C290.688 96.8809 288 99.5671 288 102.881C288 106.195 290.688 108.881 294 108.881C297.312 108.881 300 106.195 300 102.881C300 99.5671 297.312 96.8809 294 96.8809ZM288 150.881C288 147.567 290.688 144.881 294 144.881C297.312 144.881 300 147.567 300 150.881C300 154.195 297.312 156.881 294 156.881C290.688 156.881 288 154.195 288 150.881ZM294 192.881C290.688 192.881 288 195.567 288 198.881C288 202.195 290.688 204.881 294 204.881C297.312 204.881 300 202.195 300 198.881C300 195.567 297.312 192.881 294 192.881ZM288 246.881C288 243.567 290.688 240.881 294 240.881C297.312 240.881 300 243.567 300 246.881C300 250.195 297.312 252.881 294 252.881C290.688 252.881 288 250.195 288 246.881ZM294 288.881C290.688 288.881 288 291.567 288 294.881C288 298.195 290.688 300.881 294 300.881C297.312 300.881 300 298.195 300 294.881C300 291.567 297.312 288.881 294 288.881ZM342 0.880859C338.688 0.880859 336 3.56714 336 6.88086C336 10.1946 338.688 12.8809 342 12.8809C345.312 12.8809 348 10.1946 348 6.88086C348 3.56714 345.312 0.880859 342 0.880859ZM336 54.8809C336 51.5671 338.688 48.8809 342 48.8809C345.312 48.8809 348 51.5671 348 54.8809C348 58.1946 345.312 60.8809 342 60.8809C338.688 60.8809 336 58.1946 336 54.8809ZM342 96.8809C338.688 96.8809 336 99.5671 336 102.881C336 106.195 338.688 108.881 342 108.881C345.312 108.881 348 106.195 348 102.881C348 99.5671 345.312 96.8809 342 96.8809ZM336 150.881C336 147.567 338.688 144.881 342 144.881C345.312 144.881 348 147.567 348 150.881C348 154.195 345.312 156.881 342 156.881C338.688 156.881 336 154.195 336 150.881ZM342 192.881C338.688 192.881 336 195.567 336 198.881C336 202.195 338.688 204.881 342 204.881C345.312 204.881 348 202.195 348 198.881C348 195.567 345.312 192.881 342 192.881ZM336 246.881C336 243.567 338.688 240.881 342 240.881C345.312 240.881 348 243.567 348 246.881C348 250.195 345.312 252.881 342 252.881C338.688 252.881 336 250.195 336 246.881ZM342 288.881C338.688 288.881 336 291.567 336 294.881C336 298.195 338.688 300.881 342 300.881C345.312 300.881 348 298.195 348 294.881C348 291.567 345.312 288.881 342 288.881Z" fill="#0D2DD2"/>
</svg>
