<svg width="288" height="82" viewBox="0 0 288 82" fill="none" xmlns="http://www.w3.org/2000/svg">
<path d="M91.5403 47.4397C91.1863 47.2669 90.8085 47.1782 90.4154 47.1782C88.9933 47.1782 87.8317 48.3342 87.8317 49.76C87.8317 50.0416 87.8755 50.3138 87.9643 50.5753C86.1112 51.7561 83.9739 52.3785 81.7632 52.3785C79.3725 52.3785 77.0848 51.6556 75.1322 50.2818L75.5502 49.6677L75.3335 49.5033C72.7332 47.5841 71.1418 44.6354 70.9606 41.4395V40.2113C71.137 36.987 72.7285 34.0348 75.3335 32.1073L75.5502 31.9511L75.1322 31.3323C77.0848 29.9586 79.3725 29.2356 81.7632 29.2356C83.9739 29.2356 86.1112 29.8615 87.9643 31.0389C87.9039 31.2199 87.8637 31.4045 87.8435 31.5926C87.6991 33.0941 88.9045 34.4324 90.4154 34.4324C90.7612 34.4359 91.0986 34.3685 91.4124 34.236C91.8742 34.0431 92.2721 33.7224 92.5539 33.3048C92.8677 32.8468 93.0204 32.3085 93.0003 31.7512C92.9518 30.5147 92.0033 29.4663 90.7742 29.2971C90.2153 29.2214 89.6564 29.3255 89.1745 29.5906C89.1709 29.5906 89.1709 29.5906 89.1709 29.5906C86.9768 28.1364 84.412 27.3661 81.7644 27.3661C78.9995 27.3661 76.3506 28.2015 74.0843 29.7799L73.658 29.1575L73.4247 29.3267C72.629 29.9053 71.8937 30.5679 71.2341 31.298C69.2164 33.5272 67.9625 36.3421 67.6451 39.3097C67.6049 39.6753 67.3041 39.9522 66.9382 39.9522H60.9905L61.6974 39.1168L78.9983 18.5959L71.8688 22.9337L60.3747 29.9219L49.7936 36.3551V31.1359L52.2044 34.0076L53.8243 33.0279L47.9168 25.9805V37.4946L44.6581 39.4789L44.2449 39.7274L44.0081 38.3785L41.9181 26.5201L34.2665 52.3182L29.5123 21.05L23.0862 40.0729L6.60938 41.9447H24.4372L28.8172 28.9658L33.6756 60.9037L41.4326 34.7601L42.2805 39.7238L42.3041 39.8765L42.4285 40.5994H42.432L42.4676 40.8124L42.8133 42.7967L44.2721 41.9093L44.593 41.7128L47.9168 39.6931V55.9779L52.7835 50.115L54.4554 48.0988L55.2156 47.1794L55.3482 47.2598L71.8096 57.1304L60.8981 42.0382L60.7489 41.83H66.9536C67.3148 41.83 67.6167 42.1033 67.6605 42.4642C68.0015 45.3761 69.252 48.1343 71.2294 50.3197C71.889 51.0509 72.6278 51.7136 73.4236 52.291L73.6568 52.4637L74.0831 51.8378C76.3495 53.4245 78.9983 54.2551 81.7632 54.2551C84.4156 54.2551 86.9756 53.4837 89.1745 52.0307C89.5522 52.2389 89.9785 52.3478 90.4166 52.3478C91.8435 52.3478 93.0003 51.1917 93.0003 49.7659C93.0003 49.2962 92.8713 48.8383 92.6309 48.4372C92.3727 48.0029 91.995 47.6527 91.5403 47.4397ZM58.4293 41.8264L58.8792 42.4488L64.9312 50.8143L56.4269 45.7181L54.7988 44.7419L54.0433 45.653L53.5898 46.1997L51.8895 48.2514L49.7912 50.7776V38.5453L55.2369 35.2358L57.9698 33.5734L70.1673 26.1604L62.2823 35.5056L61.3978 36.5492L60.0349 38.1679L58.9941 39.4043L57.8088 40.8065L57.7484 40.8822L58.4293 41.8264Z" fill="#C39683"/>
<path d="M67.4027 56.6724H60.6308C57.9595 56.6724 55.7866 58.8436 55.7866 61.5142V73.2933C55.7866 77.5825 52.2947 81.0707 48.0035 81.0707H32.1993C27.9081 81.0707 24.4162 77.5825 24.4162 73.2933V61.5142C24.4162 58.8436 22.2434 56.6724 19.572 56.6724H7.78192C3.49073 56.6724 0 53.183 0 48.895V33.1023C0 28.8143 3.49073 25.3249 7.78192 25.3249H19.572C22.2434 25.3249 24.4162 23.1536 24.4162 20.4843V8.70515C24.4162 4.41473 27.9081 0.927734 32.1993 0.927734H48.0035C52.2947 0.927734 55.7866 4.41473 55.7866 8.70515V20.4843C55.7866 23.1536 57.9595 25.3249 60.6308 25.3249H64.3133L60.703 27.521H60.632C56.7493 27.521 53.5889 24.3629 53.5889 20.4831V8.70515C53.5889 5.62755 51.0846 3.12382 48.0047 3.12382H32.2005C29.1206 3.12382 26.6151 5.62873 26.6151 8.70515V20.4843C26.6151 24.3641 23.4559 27.5222 19.5732 27.5222H7.7831C4.70444 27.5222 2.20007 30.0247 2.20007 33.1023V48.8961C2.20007 51.9737 4.70444 54.4775 7.7831 54.4775H19.5732C23.4559 54.4775 26.6151 57.6343 26.6151 61.5154V73.2945C26.6151 76.3721 29.1218 78.8746 32.2005 78.8746H48.0035C51.0834 78.8746 53.5878 76.3721 53.5878 73.2945V61.5154C53.5878 57.6343 56.7481 54.4775 60.6308 54.4775H63.7402L67.4027 56.6724Z" fill="#C39683"/>
<path d="M119.64 46.312C117.096 46.312 115.128 45.44 113.736 43.696C112.36 41.936 111.88 39.824 112.296 37.36C112.712 34.912 113.864 32.888 115.752 31.288C117.64 29.688 119.8 28.888 122.232 28.888C123.832 28.888 125.216 29.248 126.384 29.968C127.552 30.688 128.424 31.672 129 32.92L126.504 34.24C125.672 32.464 124.176 31.576 122.016 31.576C120.256 31.576 118.728 32.144 117.432 33.28C116.136 34.416 115.336 35.856 115.032 37.6C114.728 39.344 115.024 40.784 115.92 41.92C116.832 43.056 118.136 43.624 119.832 43.624C122.12 43.624 123.92 42.696 125.232 40.84L127.488 42.304C126.592 43.536 125.448 44.512 124.056 45.232C122.68 45.952 121.208 46.312 119.64 46.312ZM136.935 46.312C134.519 46.312 132.599 45.432 131.175 43.672C129.751 41.912 129.255 39.808 129.687 37.36C130.119 34.896 131.279 32.872 133.167 31.288C135.055 29.688 137.271 28.888 139.815 28.888C142.231 28.888 144.151 29.776 145.575 31.552C146.999 33.328 147.503 35.44 147.087 37.888C146.639 40.352 145.471 42.376 143.583 43.96C141.711 45.528 139.495 46.312 136.935 46.312ZM137.295 43.624C139.007 43.624 140.527 43.064 141.855 41.944C143.199 40.808 144.023 39.376 144.327 37.648C144.631 35.92 144.311 34.48 143.367 33.328C142.423 32.16 141.095 31.576 139.383 31.576C137.687 31.576 136.183 32.152 134.871 33.304C133.559 34.44 132.751 35.872 132.447 37.6C132.143 39.328 132.447 40.768 133.359 41.92C134.287 43.056 135.599 43.624 137.295 43.624ZM153.573 46.312C151.909 46.312 150.549 45.944 149.493 45.208C148.453 44.472 147.773 43.464 147.453 42.184L149.949 40.888C150.349 42.728 151.621 43.648 153.765 43.648C154.741 43.648 155.525 43.456 156.117 43.072C156.725 42.688 157.093 42.176 157.221 41.536C157.381 40.816 157.189 40.264 156.645 39.88C156.101 39.48 155.221 39.08 154.005 38.68C153.621 38.552 153.269 38.424 152.949 38.296C152.629 38.168 152.293 38.008 151.941 37.816C151.589 37.624 151.293 37.432 151.053 37.24C150.813 37.032 150.573 36.792 150.333 36.52C150.093 36.248 149.925 35.96 149.829 35.656C149.733 35.352 149.653 35 149.589 34.6C149.525 34.2 149.549 33.776 149.661 33.328C149.917 31.872 150.613 30.768 151.749 30.016C152.901 29.264 154.197 28.888 155.637 28.888C157.013 28.888 158.165 29.224 159.093 29.896C160.037 30.552 160.709 31.44 161.109 32.56L158.685 33.832C158.109 32.312 157.021 31.552 155.421 31.552C154.653 31.552 153.997 31.728 153.453 32.08C152.909 32.432 152.573 32.912 152.445 33.52C152.301 34.24 152.485 34.8 152.997 35.2C153.525 35.584 154.381 35.984 155.565 36.4C156.317 36.672 156.909 36.912 157.341 37.12C157.773 37.328 158.269 37.64 158.829 38.056C159.405 38.456 159.789 38.976 159.981 39.616C160.173 40.24 160.189 40.968 160.029 41.8C159.757 43.256 159.037 44.376 157.869 45.16C156.701 45.928 155.269 46.312 153.573 46.312ZM180.672 29.2L177.72 46H174.96L177.072 34.048L170.448 42.472H170.112L166.536 33.808L164.4 46H161.64L164.592 29.2H167.496L170.952 37.72L177.528 29.2H180.672ZM193.645 31.84H186.325L185.557 36.208H192.277L191.821 38.8H185.101L184.285 43.36H191.749L191.269 46H181.069L184.021 29.2H194.101L193.645 31.84ZM207.668 29.2L207.212 31.84H202.484L199.988 46H197.228L199.724 31.84H194.972L195.428 29.2H207.668ZM213.716 46.312C211.3 46.312 209.38 45.432 207.956 43.672C206.532 41.912 206.036 39.808 206.468 37.36C206.9 34.896 208.06 32.872 209.948 31.288C211.836 29.688 214.052 28.888 216.596 28.888C219.012 28.888 220.932 29.776 222.356 31.552C223.78 33.328 224.284 35.44 223.868 37.888C223.42 40.352 222.252 42.376 220.364 43.96C218.492 45.528 216.276 46.312 213.716 46.312ZM214.076 43.624C215.788 43.624 217.308 43.064 218.636 41.944C219.98 40.808 220.804 39.376 221.108 37.648C221.412 35.92 221.092 34.48 220.148 33.328C219.204 32.16 217.876 31.576 216.164 31.576C214.468 31.576 212.964 32.152 211.652 33.304C210.34 34.44 209.532 35.872 209.228 37.6C208.924 39.328 209.228 40.768 210.14 41.92C211.068 43.056 212.38 43.624 214.076 43.624ZM228.16 43.36H235.024L234.544 46H224.944L227.896 29.2H230.656L228.16 43.36ZM243.435 46.312C241.019 46.312 239.099 45.432 237.675 43.672C236.251 41.912 235.755 39.808 236.187 37.36C236.619 34.896 237.779 32.872 239.667 31.288C241.555 29.688 243.771 28.888 246.315 28.888C248.731 28.888 250.651 29.776 252.075 31.552C253.499 33.328 254.003 35.44 253.587 37.888C253.139 40.352 251.971 42.376 250.083 43.96C248.211 45.528 245.995 46.312 243.435 46.312ZM243.795 43.624C245.507 43.624 247.027 43.064 248.355 41.944C249.699 40.808 250.523 39.376 250.827 37.648C251.131 35.92 250.811 34.48 249.867 33.328C248.923 32.16 247.595 31.576 245.883 31.576C244.187 31.576 242.683 32.152 241.371 33.304C240.059 34.44 239.251 35.872 238.947 37.6C238.643 39.328 238.947 40.768 239.859 41.92C240.787 43.056 242.099 43.624 243.795 43.624ZM272.543 37.312L272.351 38.464C271.951 40.8 270.879 42.696 269.135 44.152C267.407 45.592 265.319 46.312 262.871 46.312C260.247 46.312 258.231 45.432 256.823 43.672C255.415 41.912 254.927 39.784 255.359 37.288C255.775 34.856 256.919 32.848 258.791 31.264C260.679 29.68 262.855 28.888 265.319 28.888C266.967 28.888 268.383 29.248 269.567 29.968C270.751 30.688 271.663 31.696 272.303 32.992L269.783 34.312C268.855 32.488 267.295 31.576 265.103 31.576C263.327 31.576 261.791 32.136 260.495 33.256C259.199 34.376 258.399 35.808 258.095 37.552C257.791 39.312 258.095 40.768 259.007 41.92C259.919 43.056 261.287 43.624 263.111 43.624C264.647 43.624 265.935 43.28 266.975 42.592C268.015 41.904 268.767 40.968 269.231 39.784H263.711L264.143 37.312H272.543ZM287.555 29.2L280.307 38.464L278.987 46H276.227L277.547 38.416L273.563 29.2H276.515L279.227 35.8L284.267 29.2H287.555Z" fill="#C39683"/>
<rect x="113" y="55" width="171" height="2" fill="#C39683"/>
</svg>
